# xmcd
#
# Track frame offsets:
#	150
#	11632
#	28272
#	48190
#	59552
#	70377
#	84037
#	98180
#	117732
#	133620
#	145640
#	162195
#	176192
#	190902
#	205527
#
# Disc length: 3035 seconds
#
# Revision: 1
# Processed by: cddbd v1.5.2PL0 Copyright (c) Steve Scherf et al.
# Submitted via: EasyCDDAExtractor 7.0.3.1
#
DISCID=d10bd90f
DTITLE=Cordle, Jackson and Salley - Against the Grain
DYEAR=1999
DGENRE=Country
TTITLE0=Against the Grain
TTITLE1=Let Me Be the Bridge
TTITLE2=Down Home
TTITLE3=The Memory Of Your Smile
TTITLE4=You're Running Wild
TTITLE5=Homefolks
TTITLE6=Hotel Coupe De Ville
TTITLE7=Turning For Home
TTITLE8=Has Hell Frozen Over, Yet
TTITLE9=Cajun Kinda Thing
TTITLE10=Eugene and Diane
TTITLE11=The Devil Turned Him On
TTITLE12=Your Old Love Letters
TTITLE13=Red, White and Blue
TTITLE14=Navy Man
EXTD=
EXTT0=
EXTT1=
EXTT2=
EXTT3=
EXTT4=
EXTT5=
EXTT6=
EXTT7=
EXTT8=
EXTT9=
EXTT10=
EXTT11=
EXTT12=
EXTT13=
EXTT14=
PLAYORDER=
